<svg xmlns="http://www.w3.org/2000/svg" xmlns:xlink="http://www.w3.org/1999/xlink" width="40" zoomAndPan="magnify" viewBox="0 0 30 30.000001" height="40" preserveAspectRatio="xMidYMid meet" version="1.0"><defs><clipPath id="74dfbef366"><path d="M 0.484375 0 L 29.515625 0 L 29.515625 29.03125 L 0.484375 29.03125 Z M 0.484375 0 " clip-rule="nonzero"/></clipPath><clipPath id="b4cb48f643"><path d="M 0.484375 0 L 29.515625 0 L 29.515625 18 L 0.484375 18 Z M 0.484375 0 " clip-rule="nonzero"/></clipPath><clipPath id="bb3648816d"><path d="M 9 18 L 21 18 L 21 29.03125 L 9 29.03125 Z M 9 18 " clip-rule="nonzero"/></clipPath></defs><g clip-path="url(#74dfbef366)"><path fill="#ffffff" d="M 0.484375 0 L 29.515625 0 L 29.515625 29.03125 L 0.484375 29.03125 Z M 0.484375 0 " fill-opacity="1" fill-rule="nonzero"/><path fill="#ffffff" d="M 0.484375 0 L 29.515625 0 L 29.515625 29.03125 L 0.484375 29.03125 Z M 0.484375 0 " fill-opacity="1" fill-rule="nonzero"/></g><path fill="#000000" d="M 5.304688 5.019531 L 4.613281 6.980469 L 8.019531 6.980469 L 8.019531 3.917969 L 6.578125 3.917969 C 6.265625 3.9375 5.992188 4.054688 5.757812 4.257812 C 5.523438 4.460938 5.371094 4.714844 5.304688 5.019531 Z M 5.304688 5.019531 " fill-opacity="1" fill-rule="nonzero"/><path fill="#000000" d="M 9.457031 3.917969 L 8.699219 3.917969 L 8.699219 6.980469 L 11.425781 6.980469 L 10.734375 5.019531 C 10.667969 4.714844 10.515625 4.460938 10.28125 4.257812 C 10.042969 4.054688 9.769531 3.9375 9.457031 3.917969 Z M 9.457031 3.917969 " fill-opacity="1" fill-rule="nonzero"/><g clip-path="url(#b4cb48f643)"><path fill="#000000" d="M 28.113281 0 L 1.886719 0 C 1.703125 0 1.523438 0.0351562 1.351562 0.105469 C 1.179688 0.179688 1.027344 0.28125 0.894531 0.410156 C 0.761719 0.542969 0.660156 0.695312 0.589844 0.867188 C 0.519531 1.039062 0.484375 1.21875 0.484375 1.40625 L 0.484375 13.578125 C 0.484375 13.765625 0.519531 13.945312 0.589844 14.117188 C 0.660156 14.289062 0.761719 14.441406 0.894531 14.574219 C 1.027344 14.703125 1.179688 14.804688 1.351562 14.878906 C 1.523438 14.949219 1.703125 14.984375 1.886719 14.984375 L 13.59375 14.984375 L 15 17.792969 L 16.40625 14.984375 L 28.113281 14.984375 C 28.296875 14.984375 28.476562 14.949219 28.648438 14.878906 C 28.820312 14.804688 28.972656 14.703125 29.105469 14.574219 C 29.238281 14.441406 29.339844 14.289062 29.410156 14.117188 C 29.480469 13.945312 29.515625 13.765625 29.515625 13.578125 L 29.515625 1.40625 C 29.515625 1.21875 29.480469 1.039062 29.410156 0.867188 C 29.339844 0.695312 29.238281 0.542969 29.105469 0.410156 C 28.972656 0.28125 28.820312 0.179688 28.648438 0.105469 C 28.476562 0.0351562 28.296875 0 28.113281 0 Z M 4.953125 12.089844 C 4.773438 12.089844 4.597656 12.054688 4.433594 11.984375 C 4.265625 11.917969 4.117188 11.816406 3.992188 11.691406 C 3.863281 11.5625 3.765625 11.414062 3.695312 11.25 C 3.625 11.082031 3.589844 10.90625 3.589844 10.726562 C 3.589844 10.546875 3.625 10.371094 3.695312 10.207031 C 3.765625 10.039062 3.863281 9.890625 3.992188 9.765625 C 4.117188 9.636719 4.265625 9.539062 4.433594 9.46875 C 4.601562 9.398438 4.773438 9.363281 4.953125 9.367188 C 5.132812 9.367188 5.308594 9.398438 5.476562 9.46875 C 5.640625 9.539062 5.789062 9.636719 5.917969 9.765625 C 6.042969 9.890625 6.144531 10.039062 6.210938 10.207031 C 6.28125 10.375 6.316406 10.546875 6.316406 10.726562 C 6.316406 10.90625 6.28125 11.082031 6.210938 11.25 C 6.144531 11.414062 6.042969 11.5625 5.917969 11.691406 C 5.789062 11.820312 5.640625 11.917969 5.476562 11.984375 C 5.308594 12.054688 5.132812 12.089844 4.953125 12.089844 Z M 13.125 12.089844 C 12.945312 12.089844 12.773438 12.054688 12.605469 11.984375 C 12.4375 11.917969 12.292969 11.816406 12.164062 11.691406 C 12.035156 11.5625 11.9375 11.414062 11.867188 11.25 C 11.800781 11.082031 11.765625 10.90625 11.765625 10.726562 C 11.765625 10.546875 11.800781 10.371094 11.867188 10.207031 C 11.9375 10.039062 12.035156 9.890625 12.164062 9.765625 C 12.292969 9.636719 12.4375 9.539062 12.605469 9.46875 C 12.773438 9.398438 12.945312 9.367188 13.125 9.367188 C 13.308594 9.367188 13.480469 9.398438 13.648438 9.46875 C 13.816406 9.539062 13.960938 9.636719 14.089844 9.765625 C 14.21875 9.890625 14.316406 10.039062 14.386719 10.207031 C 14.453125 10.371094 14.488281 10.546875 14.488281 10.726562 C 14.488281 10.90625 14.453125 11.082031 14.386719 11.25 C 14.316406 11.414062 14.21875 11.5625 14.089844 11.691406 C 13.960938 11.820312 13.816406 11.917969 13.648438 11.984375 C 13.480469 12.054688 13.308594 12.089844 13.125 12.089844 Z M 16.875 10.726562 L 15.171875 10.726562 C 15.171875 10.457031 15.117188 10.195312 15.015625 9.945312 C 14.910156 9.695312 14.761719 9.472656 14.570312 9.28125 C 14.378906 9.089844 14.160156 8.941406 13.910156 8.839844 C 13.660156 8.734375 13.398438 8.683594 13.125 8.683594 C 12.855469 8.683594 12.59375 8.734375 12.34375 8.839844 C 12.09375 8.941406 11.875 9.089844 11.683594 9.28125 C 11.492188 9.472656 11.34375 9.695312 11.238281 9.945312 C 11.136719 10.195312 11.082031 10.457031 11.082031 10.726562 L 6.996094 10.726562 C 7 10.453125 6.953125 10.191406 6.851562 9.9375 C 6.75 9.683594 6.601562 9.457031 6.410156 9.261719 C 6.21875 9.066406 5.996094 8.917969 5.742188 8.8125 C 5.492188 8.707031 5.226562 8.652344 4.953125 8.652344 C 4.679688 8.652344 4.417969 8.707031 4.164062 8.8125 C 3.910156 8.917969 3.691406 9.066406 3.496094 9.261719 C 3.304688 9.457031 3.160156 9.683594 3.058594 9.9375 C 2.957031 10.191406 2.90625 10.453125 2.910156 10.726562 L 1.886719 10.726562 L 1.886719 7.320312 L 3.25 6.980469 L 3.757812 4.957031 C 3.832031 4.664062 3.953125 4.390625 4.117188 4.132812 C 4.28125 3.878906 4.484375 3.660156 4.722656 3.472656 C 4.964844 3.285156 5.226562 3.140625 5.515625 3.042969 C 5.800781 2.945312 6.097656 2.894531 6.402344 2.894531 L 9.636719 2.894531 C 9.941406 2.894531 10.234375 2.945312 10.523438 3.042969 C 10.808594 3.140625 11.074219 3.285156 11.3125 3.472656 C 11.550781 3.660156 11.753906 3.878906 11.921875 4.132812 C 12.085938 4.390625 12.207031 4.664062 12.277344 4.957031 L 12.785156 6.980469 L 15.316406 7.191406 C 15.527344 7.210938 15.730469 7.265625 15.921875 7.359375 C 16.113281 7.453125 16.28125 7.578125 16.425781 7.738281 C 16.570312 7.894531 16.679688 8.070312 16.757812 8.269531 C 16.835938 8.46875 16.875 8.675781 16.875 8.886719 Z M 28.113281 6.460938 L 27.082031 6.050781 L 27.082031 12.644531 L 24.25 12.644531 L 24.25 9.550781 L 21.671875 9.550781 L 21.671875 12.644531 L 18.839844 12.644531 L 18.839844 6.050781 L 17.808594 6.460938 L 17.808594 4.402344 L 22.960938 2.339844 L 28.113281 4.402344 Z M 28.113281 6.460938 " fill-opacity="1" fill-rule="nonzero"/></g><g clip-path="url(#bb3648816d)"><path fill="#000000" d="M 15 18.730469 C 14.660156 18.730469 14.328125 18.761719 13.996094 18.828125 C 13.664062 18.894531 13.339844 18.992188 13.027344 19.121094 C 12.714844 19.253906 12.417969 19.410156 12.136719 19.597656 C 11.855469 19.785156 11.597656 20 11.359375 20.238281 C 11.117188 20.476562 10.90625 20.738281 10.71875 21.019531 C 10.527344 21.300781 10.371094 21.597656 10.242188 21.910156 C 10.113281 22.222656 10.015625 22.542969 9.949219 22.875 C 9.882812 23.207031 9.847656 23.542969 9.847656 23.882812 C 9.847656 24.21875 9.882812 24.554688 9.949219 24.886719 C 10.015625 25.21875 10.113281 25.539062 10.242188 25.851562 C 10.371094 26.164062 10.527344 26.460938 10.71875 26.742188 C 10.90625 27.023438 11.117188 27.285156 11.359375 27.523438 C 11.597656 27.761719 11.855469 27.976562 12.136719 28.164062 C 12.417969 28.351562 12.714844 28.511719 13.027344 28.640625 C 13.339844 28.769531 13.664062 28.867188 13.996094 28.933594 C 14.328125 29 14.660156 29.03125 15 29.03125 C 15.339844 29.03125 15.671875 29 16.003906 28.933594 C 16.335938 28.867188 16.660156 28.769531 16.972656 28.640625 C 17.285156 28.511719 17.582031 28.351562 17.863281 28.164062 C 18.144531 27.976562 18.402344 27.761719 18.640625 27.523438 C 18.882812 27.285156 19.09375 27.023438 19.28125 26.742188 C 19.46875 26.460938 19.628906 26.164062 19.757812 25.851562 C 19.886719 25.539062 19.984375 25.21875 20.050781 24.886719 C 20.117188 24.554688 20.152344 24.21875 20.152344 23.882812 C 20.152344 23.542969 20.117188 23.207031 20.050781 22.875 C 19.984375 22.542969 19.886719 22.222656 19.757812 21.910156 C 19.628906 21.597656 19.472656 21.300781 19.28125 21.019531 C 19.09375 20.738281 18.882812 20.476562 18.640625 20.238281 C 18.402344 20 18.144531 19.785156 17.863281 19.597656 C 17.582031 19.410156 17.285156 19.253906 16.972656 19.121094 C 16.660156 18.992188 16.335938 18.894531 16.003906 18.828125 C 15.671875 18.761719 15.339844 18.730469 15 18.730469 Z M 14.613281 23.367188 L 15.386719 23.367188 C 15.597656 23.359375 15.804688 23.390625 16.007812 23.464844 C 16.207031 23.539062 16.386719 23.648438 16.542969 23.792969 C 16.699219 23.9375 16.820312 24.109375 16.910156 24.300781 C 17 24.496094 17.050781 24.699219 17.058594 24.910156 C 17.050781 25.113281 17.007812 25.304688 16.925781 25.492188 C 16.84375 25.675781 16.730469 25.839844 16.589844 25.980469 C 16.445312 26.125 16.28125 26.234375 16.097656 26.316406 C 15.910156 26.394531 15.71875 26.4375 15.515625 26.445312 L 15.515625 26.972656 L 14.484375 26.972656 L 14.484375 26.445312 C 14.28125 26.4375 14.089844 26.394531 13.902344 26.316406 C 13.71875 26.234375 13.554688 26.125 13.410156 25.980469 C 13.269531 25.839844 13.15625 25.675781 13.074219 25.492188 C 12.992188 25.304688 12.949219 25.113281 12.941406 24.910156 L 13.96875 24.910156 C 13.992188 25.070312 14.066406 25.199219 14.1875 25.296875 C 14.3125 25.398438 14.453125 25.441406 14.613281 25.425781 L 15.386719 25.425781 C 15.464844 25.445312 15.542969 25.445312 15.621094 25.425781 C 15.699219 25.410156 15.769531 25.375 15.832031 25.324219 C 15.894531 25.273438 15.945312 25.214844 15.980469 25.140625 C 16.015625 25.066406 16.03125 24.992188 16.03125 24.910156 C 16.03125 24.832031 16.015625 24.753906 15.980469 24.683594 C 15.945312 24.609375 15.894531 24.550781 15.832031 24.5 C 15.769531 24.449219 15.699219 24.414062 15.621094 24.398438 C 15.542969 24.378906 15.464844 24.378906 15.386719 24.394531 L 14.613281 24.394531 C 14.402344 24.40625 14.195312 24.371094 13.992188 24.296875 C 13.792969 24.222656 13.613281 24.113281 13.457031 23.96875 C 13.300781 23.824219 13.179688 23.65625 13.089844 23.460938 C 13 23.269531 12.949219 23.0625 12.941406 22.851562 C 12.949219 22.648438 12.992188 22.457031 13.074219 22.273438 C 13.15625 22.085938 13.269531 21.921875 13.410156 21.78125 C 13.554688 21.640625 13.71875 21.527344 13.902344 21.449219 C 14.089844 21.367188 14.28125 21.324219 14.484375 21.316406 L 14.484375 20.789062 L 15.515625 20.789062 L 15.515625 21.316406 C 15.71875 21.324219 15.910156 21.367188 16.097656 21.449219 C 16.28125 21.527344 16.445312 21.640625 16.589844 21.78125 C 16.730469 21.921875 16.84375 22.085938 16.925781 22.273438 C 17.007812 22.457031 17.050781 22.648438 17.058594 22.851562 L 16.03125 22.851562 C 16.007812 22.691406 15.933594 22.566406 15.8125 22.464844 C 15.6875 22.367188 15.546875 22.324219 15.386719 22.335938 L 14.613281 22.335938 C 14.535156 22.320312 14.457031 22.320312 14.378906 22.335938 C 14.300781 22.355469 14.230469 22.390625 14.167969 22.4375 C 14.105469 22.488281 14.058594 22.550781 14.023438 22.621094 C 13.988281 22.695312 13.972656 22.769531 13.972656 22.851562 C 13.972656 22.929688 13.988281 23.007812 14.023438 23.078125 C 14.058594 23.152344 14.105469 23.210938 14.167969 23.261719 C 14.230469 23.3125 14.300781 23.347656 14.378906 23.367188 C 14.457031 23.382812 14.535156 23.382812 14.613281 23.367188 Z M 14.613281 23.367188 " fill-opacity="1" fill-rule="nonzero"/></g></svg>